<?xml version="1.0" encoding="utf-8"?>
<!-- Generator: Adobe Illustrator 19.2.1, SVG Export Plug-In . SVG Version: 6.00 Build 0)  -->
<svg version="1.1" baseProfile="tiny" id="Ebene_2" xmlns="http://www.w3.org/2000/svg" xmlns:xlink="http://www.w3.org/1999/xlink"
	 x="0px" y="0px" viewBox="0 0 574.8 83.5" xml:space="preserve">
<g id="g4877" transform="matrix(1.3267784,0,0,1.3267784,-90.046541,75.517357)">
	<g id="g4885">
	</g>
	<g id="g4891">
	</g>
	
		<path id="path4895" inkscape:connector-curvature="0" sodipodi:nodetypes="ccccccccccccccccccccccccccccccccccccccccccccccccccccscccccccccccccccsccccccccccccccccccccccccccccccccccc" fill="#FFFFFF" stroke="#000000" stroke-width="1.8843" stroke-linecap="square" stroke-linejoin="round" d="
		M280.3-28.6c4.2,0,8.4,0,12.7,0c0,2.8,0,5.6,0,8.4c-4.2,0.2-8.4,0.1-12.6,0.1C280.3-23,280.3-25.8,280.3-28.6z M349.3-44.1
		c11.6,0,23.2-0.1,34.8,0c2.6-0.2,4.8,1.5,6,3.7c2.7,4.4,5.9,8.6,8.4,13.1c1,2.6,0.9,6-1,8.2c-2.8,3.9-5.1,8.2-7.9,12
		c-1.5,2.1-4.1,2.4-6.5,2.3c-11.3,0-22.6,0.1-33.9,0C349.4-17.9,349.3-31,349.3-44.1L349.3-44.1z M364.1-35.3c0,7.3,0,14.8,0,22.1
		h12.4c1.4-0.1,3.1,0.1,3.9-1.4c2.2-3.1,4.3-6.2,6.2-9.5c-0.8-2.8-2.8-5.1-4.3-7.5c-1.2-1.5-2.4-3.8-4.6-3.7
		C373.1-35.3,368.6-35.2,364.1-35.3L364.1-35.3z M305.4-41.3c1.2-1.7,3-3,5.1-2.8c11.7,0,23.5,0,35.2,0c0,2.9,0,5.8,0,8.7
		c-8.6,0.1-17.2-0.1-25.8,0.1c-2.8,0-4.1,2.8-5.5,4.8c-1.3,2.2-3.6,4.9-1.7,7.5c2.1,3.3,3.9,9,8.3,9.9h24.8c0,3.1,0,5.3,0,8.4
		c-11.4,0-22.9,0-34.3,0c-4.7,0-6.7-5-9-8.3c-1.9-3.7-5.4-6.6-5.6-11c-0.2-2.4,0.2-5,1.7-6.9C300.9-34.4,303-37.9,305.4-41.3
		L305.4-41.3z M235.8-44.1c7.3-0.1,14.6,0,21.8-0.1c3.9-0.4,6.7,2.9,8.6,5.9c6.9,11.3,14.1,22.2,20.9,33.5c-5,0-10.6,0-15.6,0
		l-5.3-8.4h-13.2l-3.9-5.2c0.1,4.6,0.1,9.1,0.1,13.6c-4.5,0-9,0.1-13.6,0C235.7-17.9,235.7-30.9,235.8-44.1L235.8-44.1z M249.6-35.6
		c-0.1,4.9,0,10.2-0.1,15.2h11.9l-7.6-12.4c0,0-1.1-1.9-2.1-2.4C251.2-35.6,249.6-35.6,249.6-35.6L249.6-35.6z M192-40.2
		c1.2-1.7,2.6-4,5.1-3.8c10.8,0,21.6,0,32.4,0c0,2.9,0,5.9-0.1,8.8c-7,0-14-0.1-21,0c-1.3,0-2.6-0.1-3.1,0.8l-4.8,7.9v13.4h19.1
		v-7.2h-9.1l4.8-8.1h16.4v23.7h-39.3c-3.6,0-5.4-3-5.4-6c0.1-7.2-0.2-14.3,0.1-21.5C188.5-35.1,190.3-37.6,192-40.2L192-40.2z
		 M146.6-38.4c1.8-2.3,3.4-6,6.9-5.7c10.1,0,20.3,0,30.4,0v8.8c-7.5,0.2-15.3-0.1-22.8,0.2l-5.1,6.7H184c-1.9,2.5-3.3,5.5-5.1,8.1
		H156c0,2.5,0,4.8,0.1,7.2H184v8.4h-42.1c0-8,0-15.9,0-23.9C141.5-32.7,144.7-35.4,146.6-38.4z M91-40.2c1.3-2,3.3-4,5.8-3.9
		c4.8-0.1,9.7,0,14.6,0c0,1.6-0.1,3.3-0.1,4.9c2-2.2,4.1-5,7.4-4.8c6.7-0.1,13.4,0,20.1,0c0,13.1,0,26.2,0,39.3c-4.5,0-9.1,0-13.6,0
		c0-9.4,0-18.7,0-28.1c-2.6-0.2-3.8,2.2-4.9,4C115.2-20.8,110-13,105.3-4.8c-4.8,0.1-9.5,0.1-14.3,0c5.7-9.7,11.9-19,17.7-28.6
		c-3,0.2-6.9-0.8-9.1,1.8C94-22.7,88.5-13.7,82.9-4.8c-4.8,0-9.6,0-14.4,0C76-16.6,83.5-28.4,91-40.2L91-40.2z"/>
</g>
<g id="g6103" transform="translate(-5.248367,-3.3142805)">
	<g id="g4175">
		<g id="g4211" transform="matrix(0.77304741,0,0,0.77304741,11.558273,-0.92434125)">
			<g id="g4200" transform="matrix(4.1259919,0,0,4.1259919,-847.16857,-645.6486)">
				<path id="path4168" inkscape:connector-curvature="0" d="M351.3,179.8h32.2v-16.9l-32.2,0V179.8z"/>
				<path id="path4170" inkscape:connector-curvature="0" fill="#FFFFFF" d="M359.7,163.9c0.1-0.1,0.2-0.1,0.2-0.1h3.1v0.7h-2.4
					l-0.1,0.2v0.5h2.6l-0.5,0.7h-2.1v0.7h2.6v0.7h-3.9c0-0.7,0-1.6,0-2.3L359.7,163.9z"/>
				<path id="path4172" inkscape:connector-curvature="0" fill="#FFFFFF" d="M370,163.8c0.1,0,0.1,0,0.1,0.1
					c0.8,1.1,1.6,2.2,2.4,3.3c-0.4,0-0.7,0-1.1,0l-0.5-0.7h-1.4l-0.5-0.6v1.3H368c0,0-0.1,0-0.1-0.1l0-3.3 M369,165.9h1.4l-1-1.4
					h-0.4L369,165.9z"/>
				<path id="path4174" inkscape:connector-curvature="0" fill="#FFFFFF" d="M364.2,163.8h3v0.7h-2.4c-0.1,0-0.1,0-0.2,0l-0.1,0.1
					l0,1.7c0,0.2,0,0.2,0.1,0.2h1.7v-0.7h-0.8l0.5-0.7h1.5v2.1c-1.1,0-2.8,0-3.9,0c-0.1,0-0.2-0.1-0.2-0.3l0-2.1l0.7-1
					C364,163.8,364.2,163.8,364.2,163.8L364.2,163.8z"/>
				<path id="path4176" inkscape:connector-curvature="0" fill="#E4AC25" d="M379.1,164.1c0.7-0.2,1.5-0.3,2.2-0.1
					c0.5,0.1,1.1,0.5,1.2,1c0.3,0.8,0.1,1.7-0.2,2.5c-0.5,1.2-1.3,2.3-2.2,3.3c0-1.2,0-2.4,0-3.7c0-0.2,0-0.4,0-0.6
					c-0.1-0.5-0.5-0.8-1-0.8c-1.2,0-2.3,0-3.5,0C376.7,165,377.8,164.4,379.1,164.1L379.1,164.1z"/>
				<path id="path4178" inkscape:connector-curvature="0" fill="#E4AC25" d="M372.8,168c0.8-0.8,1.7-1.6,2.7-2.3c0,1.9,0,3.8,0,5.7
					c0,0,0,0.1,0.1,0.1c1.2,0,2.3,0,3.5,0c0.1,0,0.2,0,0.4,0c-0.3,0.3-0.6,0.5-0.8,0.8c-1.3,1.1-2.8,2-4.4,2.5c-1,0.3-2.1,0.4-3-0.1
					c-0.1-0.1-0.3-0.2-0.2-0.3c1.3-1.3,2.8-2.5,4.2-3.7v-0.4c-1.6,1.1-3.3,2.4-4.8,3.5l-0.1,0.1l0.1-0.1c1.5-1.4,3-2.7,4.5-4
					l0.4-0.3V169c-1.6,1.1-3.4,2.5-4.8,3.5c0.1-0.2,0.3-0.3,0.5-0.5c1.4-1.3,2.9-2.6,4.4-3.9v-0.3c-1.5,1-3,2.2-4.3,3.1
					c0.1-0.2,0.1-0.3,0.3-0.4c1.3-1.2,2.7-2.3,4-3.5v-0.3c-0.6,0.3-1.1,0.8-1.7,1.2c-0.4,0.2-0.7,0.6-1.1,0.8
					C372.5,168.4,372.7,168.2,372.8,168L372.8,168z"/>
				<path id="path4180" inkscape:connector-curvature="0" fill="#E4AC25" d="M377.1,167.2c0-0.1,0-0.2,0-0.3c0.4,0,0.8,0,1.3,0
					c0,0.1,0.1,0.2,0.1,0.2c0,1,0,2,0,2.9c0,0.1,0,0.1-0.1,0.2c-0.4,0-0.7,0-1.1,0c-0.1,0-0.2-0.1-0.2-0.2
					C377.1,169.2,377.1,168.2,377.1,167.2L377.1,167.2z"/>
				<path id="path4182" inkscape:connector-curvature="0" fill="#349DEC" d="M367.8,168.2c0.7-0.2,1.5-0.4,2.3-0.4
					c0.5,0,1.1,0.1,1.5,0.5c-1.4,1.3-2.8,2.6-4.2,3.9v0.3c1.4-1,2.9-2.1,4.2-3c0.2-0.1,0.4-0.3,0.6-0.4c-0.1,0.2-0.3,0.3-0.4,0.5
					c-1.3,1.2-2.6,2.4-3.9,3.6c-0.1,0.1-0.3,0.3-0.4,0.4v0.2c1.6-1.1,3.2-2.3,4.8-3.3c-0.1,0.1-0.2,0.2-0.3,0.3
					c-1.5,1.3-3,2.7-4.5,4v0.3c1.3-0.9,2.7-1.9,3.8-2.7c0.2-0.1,0.3-0.2,0.5-0.3c0,0.1-0.1,0.1-0.1,0.2c-1.4,1.3-2.8,2.5-4.1,3.8
					v0.2c1-0.6,2-1.5,2.9-2c-0.2,0.3-0.4,0.5-0.7,0.8c-1.3,1.4-2.9,2.5-4.6,3.3c-1,0.4-2,0.7-3.1,0.7c-0.6,0-1.2-0.2-1.6-0.6
					c-0.4-0.5-0.5-1.1-0.4-1.7c0.1-0.8,0.5-1.6,0.9-2.4c0.5-0.8,1.1-1.6,1.7-2.2c0,1.2,0,2.4,0,3.6c0,0.4,0,0.8,0.2,1.1
					c0.2,0.2,0.5,0.4,0.8,0.4c1.2,0,2.3,0,3.5,0c0-0.7,0-1.4,0-2.2c-0.5,0-1-0.1-1.4,0c0,0.3,0,0.6,0,0.9c-0.1,0.1-0.3,0-0.5,0.1
					c-0.3,0-0.7,0-1,0c0-1.1,0-2.2,0-3.3c0.4-0.1,0.9,0,1.4,0c0,0,0.1,0,0.1,0.1c0,0.3,0,0.5,0,0.8c0.4,0.1,0.9,0,1.3,0
					c0,0,0.1,0,0.1-0.1c0-0.7,0-1.4,0-2c-0.9-0.1-1.8,0-2.7,0c-0.4,0-0.8,0-1.2,0.1c0.1-0.1,0.2-0.3,0.4-0.4
					C364.6,169.8,366.1,168.8,367.8,168.2L367.8,168.2z"/>
				<path id="path4184" inkscape:connector-curvature="0" fill="#FFFFFF" d="M354.3,164.1c0.1-0.2,0.3-0.3,0.5-0.3
					c0.4,0,0.9,0,1.3,0c0,0.1,0,0.2,0,0.4c0.2-0.2,0.4-0.4,0.7-0.4c0.6,0,1.2,0,1.9,0c0,1.1,0,2.3,0,3.4c-0.4,0-0.8,0-1.3,0
					c0-0.8,0-1.7,0-2.5c-0.2,0-0.4,0.2-0.5,0.4c-0.5,0.7-0.9,1.4-1.4,2.1c-0.4,0-0.9,0-1.3,0c0.5-0.9,1.1-1.7,1.6-2.5
					c-0.3,0-0.6-0.1-0.8,0.2c-0.5,0.8-1,1.6-1.5,2.4c-0.4,0-0.9,0-1.3,0C352.9,166.2,353.6,165.1,354.3,164.1L354.3,164.1z"/>
			</g>
		</g>
	</g>
</g>
</svg>
