<?xml version="1.0" encoding="utf-8"?>
<!-- Generator: Adobe Illustrator 19.2.1, SVG Export Plug-In . SVG Version: 6.00 Build 0)  -->
<svg version="1.1" baseProfile="tiny"
	 id="Ebene_1" xmlns:cc="http://creativecommons.org/ns#" xmlns:dc="http://purl.org/dc/elements/1.1/" xmlns:rdf="http://www.w3.org/1999/02/22-rdf-syntax-ns#"
	 xmlns="http://www.w3.org/2000/svg" xmlns:xlink="http://www.w3.org/1999/xlink" x="0px" y="0px" viewBox="0 0 731.9 89"
	 xml:space="preserve">
<g display="none">
	<path display="inline" fill="#17569B" d="M126.6,57.8h39.8c16.3,0,29.5-13.2,29.5-29.5S182.7-1.1,166.4-1.1H156
		c-0.8,0-1.5-0.7-1.5-1.5c0-0.9,0.7-1.6,1.5-1.6h39.7l0.1-12.4H156c-7.7,0-13.9,6.2-13.9,13.9c0,7.8,6.2,14.1,13.9,14.1h10.4
		c9.3,0,16.9,7.6,16.9,16.9s-7.6,16.8-16.9,16.8h-39.8L126.6,57.8L126.6,57.8z"/>
	<path display="inline" fill="#17569B" d="M126.6,42.2h39.8c7.8,0,14-6.3,14-14s-6.2-14-14-14H156c-9.3,0-16.8-7.7-16.8-17
		s7.5-16.8,16.8-16.8h39.8l-0.1-12.6H156c-16.3,0-29.4,13.2-29.4,29.5s13.2,29.4,29.4,29.4h10.3c0.8,0,1.5,0.7,1.5,1.5
		s-0.7,1.5-1.5,1.5h-39.7L126.6,42.2L126.6,42.2z"/>
	<path display="inline" fill="#17569B" d="M226.7,45.2c-6.9,0-12.5-5.5-12.5-12.5v-40c0-6.7,5.6-12.3,12.5-12.3h42.5v-12.5h-42.5
		c-13.8,0-25,11.2-25,25v39.8c0,13.8,11.2,25,25,25H269V45.2H226.7L226.7,45.2z"/>
	<path display="inline" fill="#17569B" d="M217.2-7.1c0-5.2,4.2-9.6,9.5-9.6h42.5v12.5h-36.6c-2.9,0-2.9,2.9-2.9,2.9h30.6v12.5h-43
		L217.2-7.1L217.2-7.1z"/>
	<path display="inline" fill="#17569B" d="M226.7,42.2c-5.2,0-9.5-4.2-9.5-9.5V14.3h43v12.5h-30.6c0,2.9,2.9,2.9,2.9,2.9H269v12.4
		L226.7,42.2L226.7,42.2z"/>
	<path display="inline" fill="#17569B" d="M299,45.2c-6.9,0-12.6-5.6-12.6-12.5V-7.1c0-6.9,5.6-12.5,12.5-12.5h41.2v-12.5h-41.3
		c-13.8,0-25,11.2-25,25v39.8c0,13.8,11.3,25,25.1,25h41.2V-1.2h-35.4v12.5h22.9v33.9H299L299,45.2z"/>
	<path display="inline" fill="#17569B" d="M289.4,32.7c0,5.2,4.3,9.6,9.6,9.6h25.7v-28h-19.9v12.6h7.4v2.9h-7.4
		c-1.6,0-2.9-1.4-2.9-2.9v-28c0,0,0-2.9,2.9-2.9h35.3v-12.5h-41.2c-5.2,0-9.6,4.3-9.6,9.6L289.4,32.7L289.4,32.7z"/>
	<path display="inline" fill="#17569B" d="M378.8-16.8c0.6-1.6,2-2.8,3.8-2.8s3.3,1.1,3.8,2.8l19.9,59.2h-29.2v-14h9.8l-4.4-13.2
		l-14.4,42.4h-14.7L378.8-16.8L378.8-16.8z"/>
	<path display="inline" fill="#17569B" d="M410.5,45.2h-33.3v12.5h50.6l-26.3-78c-2.3-7.6-9.9-13.2-18.9-13.2s-16.6,5.6-18.9,13.2
		l-26.6,78h13.2L376-18.2c1.1-2.5,3.5-4.2,6.5-4.2c2.9,0,5.3,1.7,6.4,4.2L410.5,45.2L410.5,45.2z"/>
	<path display="inline" fill="#17569B" d="M420.5-21.7c2.6,0,5.1-1,6.9-2.9c1.9-1.9,2.9-4.3,2.9-6.9s-1-5.1-2.9-6.9
		c-1.8-1.9-4.2-2.9-6.9-2.9c-5.4,0-9.8,4.3-9.8,9.7c0,2.6,1.1,5.1,2.9,6.9C415.4-22.7,417.8-21.7,420.5-21.7z M412-31.6
		c0-2.2,0.9-4.3,2.5-6c1.5-1.6,3.7-2.5,6-2.5c2.2,0,4.3,0.9,6,2.5c1.6,1.6,2.5,3.8,2.5,6c0,4.7-3.8,8.4-8.4,8.4
		c-2.3,0-4.4-0.8-6-2.5C412.9-27.1,412-29.3,412-31.6z"/>
	<path display="inline" fill="#17569B" d="M417.9-30.7v4.7h-1.4v-11h4c1.5,0,2.4,0,3.3,0.7c0.7,0.6,1.1,1.5,1.1,2.5
		c0,2.5-2,2.9-2.6,2.9l3,4.7h-1.7l-2.9-4.7L417.9-30.7L417.9-30.7z M417.9-31.9h2.9c0.5,0,0.9,0,1.3-0.2c1.1-0.2,1.4-1,1.4-1.7
		c0-0.2-0.1-1.1-0.7-1.6s-1.3-0.4-2.1-0.4h-2.8L417.9-31.9L417.9-31.9z"/>
	<g id="g6708" transform="translate(-67.069808,39.506873)" display="inline">
		<g id="flowRoot6696" transform="translate(0,952.36218)">
			<path id="path6717" fill="#FF0000" d="M153.6-852.6h-30.9v-3.5c1.1,0,2.6-0.1,4.3-0.3c1.8-0.2,3-0.5,3.6-0.8
				c1-0.6,1.8-1.3,2.2-2.1c0.5-0.8,0.7-1.8,0.7-3v-50.8h-0.7L109-853.6h-2.5l-22.7-60.8h-0.6v41.7c0,4,0.3,7.1,0.8,9.2
				c0.5,2.1,1.3,3.6,2.3,4.5c0.7,0.7,2.2,1.4,4.5,2s3.7,1,4.4,1v3.5H67.1v-3.5c1.5-0.1,3-0.4,4.7-0.7c1.6-0.4,2.9-0.9,3.8-1.6
				c1.2-0.9,1.9-2.3,2.4-4.2c0.4-1.9,0.6-5.1,0.6-9.6V-908c0-2.1-0.2-3.8-0.7-5.1s-1.2-2.4-2.1-3.2c-1-0.9-2.3-1.5-3.7-2
				c-1.5-0.4-2.9-0.7-4.4-0.7v-3.5h23.8l20,52.4l17.1-43.8c0.6-1.6,1.2-3.3,1.6-5c0.4-1.8,0.7-2.9,0.7-3.5h22.8v3.5
				c-0.9,0-2.1,0.2-3.5,0.4c-1.4,0.3-2.5,0.5-3.1,0.7c-1.1,0.4-1.9,1.1-2.3,2c-0.4,0.9-0.6,1.9-0.6,3v50.4c0,1.2,0.2,2.1,0.6,2.9
				c0.4,0.8,1.1,1.5,2.3,2.1c0.6,0.3,1.6,0.6,3.2,0.9c1.5,0.3,2.7,0.4,3.6,0.5L153.6-852.6L153.6-852.6L153.6-852.6z"/>
			<path id="path6719" fill="#FF0000" d="M197.4-853.5c-1.5,0.6-2.9,1-4.1,1.4c-1.2,0.3-2.5,0.5-4,0.5c-2.6,0-4.6-0.6-6.1-1.8
				s-2.5-2.9-2.9-5.2H180c-2.1,2.4-4.4,4.2-6.9,5.4c-2.4,1.3-5.4,1.9-8.8,1.9c-3.6,0-6.6-1.1-9-3.3c-2.3-2.2-3.5-5.2-3.5-8.8
				c0-1.9,0.3-3.5,0.8-5s1.3-2.8,2.4-4c0.8-1,1.9-1.9,3.2-2.6c1.3-0.8,2.6-1.4,3.8-1.8c1.5-0.6,4.5-1.6,9-3.1s7.6-2.7,9.1-3.5v-4.9
				c0-0.4-0.1-1.2-0.3-2.5c-0.2-1.2-0.6-2.4-1.2-3.4c-0.7-1.2-1.6-2.3-2.8-3.2s-2.9-1.4-5.1-1.4c-1.5,0-2.9,0.3-4.2,0.8
				s-2.2,1-2.7,1.6c0,0.7,0.2,1.6,0.5,2.9c0.3,1.3,0.5,2.5,0.5,3.5c0,1.2-0.5,2.2-1.6,3.2c-1,1-2.5,1.4-4.3,1.4
				c-1.6,0-2.8-0.6-3.6-1.7c-0.8-1.2-1.2-2.5-1.2-3.9c0-1.5,0.5-3,1.6-4.3c1.1-1.4,2.5-2.6,4.2-3.7c1.5-0.9,3.3-1.7,5.4-2.3
				c2.1-0.6,4.2-1,6.2-1c2.8,0,5.2,0.2,7.2,0.6c2.1,0.4,3.9,1.2,5.6,2.4c1.7,1.2,2.9,2.9,3.8,4.9c0.9,2.1,1.3,4.8,1.3,8.1
				c0,4.7-0.1,8.9-0.1,12.5c-0.1,3.6-0.1,7.6-0.1,11.9c0,1.3,0.2,2.3,0.7,3.1c0.4,0.8,1.1,1.4,2,1.9c0.5,0.3,1.3,0.5,2.3,0.5
				c1.1,0,2.2,0.1,3.3,0.1L197.4-853.5L197.4-853.5L197.4-853.5z M180.2-879.5c-2.8,0.8-5.2,1.6-7.3,2.4c-2.1,0.8-4.1,1.8-5.9,3
				c-1.6,1.1-2.9,2.4-3.9,4c-0.9,1.5-1.4,3.3-1.4,5.4c0,2.7,0.7,4.7,2.1,6c1.4,1.3,3.2,1.9,5.4,1.9c2.3,0,4.4-0.6,6.2-1.7
				c1.8-1.1,3.3-2.5,4.5-4L180.2-879.5z"/>
			<path id="path6721" fill="#FF0000" d="M223.8-876.4c1.3,1.2,2.4,2.5,3.1,4.1c0.7,1.5,1.1,3.4,1.1,5.7c0,4.5-1.7,8.2-5,11
				c-3.4,2.9-7.7,4.3-13.1,4.3c-2.8,0-5.4-0.5-7.8-1.5c-2.4-1-4.1-2-5.1-2.8l-1,3.2h-3.7l-0.5-16.9h3.4c0.3,1.3,0.8,2.8,1.7,4.5
				s1.9,3.2,3.1,4.6c1.3,1.4,2.8,2.7,4.6,3.6c1.8,1,3.8,1.5,6,1.5c3.2,0,5.6-0.7,7.3-2.1c1.7-1.4,2.6-3.5,2.6-6.1
				c0-1.4-0.3-2.6-0.8-3.6s-1.3-1.9-2.4-2.6c-1.1-0.8-2.4-1.4-4-2s-3.3-1.2-5.3-1.8c-1.5-0.5-3.3-1.1-5.1-1.9
				c-1.9-0.8-3.5-1.8-4.9-2.8c-1.4-1.1-2.6-2.6-3.5-4.2c-0.9-1.7-1.4-3.6-1.4-5.9c0-4,1.5-7.3,4.4-10.1c3-2.8,6.9-4.1,11.9-4.1
				c1.9,0,3.8,0.2,5.8,0.7s3.6,1.1,4.9,1.8l1.1-2.6h3.5l0.7,15.6H222c-0.7-3.5-2.2-6.3-4.5-8.5s-5.1-3.3-8.4-3.3
				c-2.7,0-4.8,0.7-6.4,2c-1.5,1.4-2.3,3-2.3,4.9c0,1.5,0.3,2.7,0.8,3.7s1.3,1.8,2.3,2.5s2.2,1.3,3.7,1.8c1.5,0.6,3.3,1.2,5.5,1.9
				s4.2,1.5,6.1,2.4C220.9-878.6,222.5-877.5,223.8-876.4z"/>
			<path id="path6723" fill="#FF0000" d="M254.8-854.8c-2.1,0.9-4.2,1.6-6.1,2.2c-1.9,0.6-4.2,0.9-7,0.9c-4.1,0-6.9-1-8.6-3.1
				c-1.7-2.1-2.5-5-2.5-8.7v-32.9h-8.8v-4.7h9v-15.1h9v15.1h13.9v4.7h-13.8v27.1c0,2,0.1,3.7,0.2,5.1c0.1,1.4,0.5,2.6,1.1,3.6
				c0.5,1,1.3,1.7,2.4,2.2c1.1,0.5,2.5,0.7,4.2,0.7c0.8,0,2-0.1,3.6-0.2c1.6-0.1,2.7-0.3,3.4-0.6L254.8-854.8L254.8-854.8z"/>
			<path id="path6725" fill="#FF0000" d="M292.3-864.1c-2,3.9-4.8,7-8.2,9.3c-3.4,2.3-7.3,3.4-11.8,3.4c-3.9,0-7.3-0.7-10.3-2.1
				c-2.9-1.4-5.4-3.3-7.3-5.6c-1.9-2.4-3.3-5.1-4.3-8.3c-0.9-3.2-1.4-6.5-1.4-10c0-3.2,0.5-6.2,1.5-9.3c1-3,2.5-5.8,4.4-8.2
				c1.9-2.3,4.2-4.2,7-5.6c2.8-1.4,5.9-2.1,9.3-2.1c3.5,0,6.6,0.6,9.1,1.7c2.5,1.1,4.6,2.6,6.2,4.6c1.5,1.8,2.6,4,3.4,6.5
				c0.7,2.5,1.1,5.2,1.1,8.1v3.3h-32c0,3.2,0.3,6.1,0.9,8.7c0.6,2.6,1.6,4.9,2.9,6.8c1.3,1.9,3,3.4,5,4.5c2.1,1.1,4.5,1.6,7.4,1.6
				s5.4-0.7,7.6-2c2.1-1.4,4.2-3.8,6.1-7.4L292.3-864.1z M281.4-882.6c0-1.8-0.2-3.8-0.5-5.9c-0.3-2.1-0.8-3.9-1.5-5.3
				c-0.8-1.5-1.8-2.7-3.1-3.7c-1.3-0.9-3-1.4-5.1-1.4c-3.4,0-6.3,1.4-8.6,4.3c-2.3,2.9-3.5,6.9-3.7,12L281.4-882.6L281.4-882.6z"/>
			<path id="path6727" fill="#FF0000" d="M324.8-894.9c0,1.7-0.4,3.2-1.2,4.5c-0.8,1.3-2.1,1.9-3.8,1.9c-1.8,0-3.2-0.5-4.2-1.4
				s-1.5-2-1.5-3.1c0-0.7,0.1-1.4,0.2-2s0.2-1.2,0.3-1.8c-1.5,0-3.4,0.6-5.4,1.9c-2.1,1.2-3.8,3-5.3,5.3v28.3c0,1.2,0.2,2.1,0.7,2.8
				c0.4,0.7,1.1,1.3,2.1,1.6c0.8,0.3,1.9,0.6,3.2,0.7c1.3,0.2,2.4,0.3,3.4,0.3v3.2h-25.6v-3.2c0.8-0.1,1.5-0.1,2.3-0.2
				c0.8-0.1,1.5-0.2,2.1-0.4c0.9-0.3,1.6-0.8,2-1.5s0.7-1.7,0.7-2.9v-30c0-1-0.2-2-0.7-3s-1.1-1.8-2-2.4c-0.6-0.4-1.4-0.7-2.2-0.9
				c-0.9-0.2-1.8-0.3-2.8-0.4v-3.2l16.2-1.1l0.7,0.7v6.8h0.2c2-2.7,4.3-4.7,6.8-6.1c2.5-1.4,4.8-2.1,6.8-2.1c2.1,0,3.8,0.7,5,2
				C324.1-899,324.8-897.2,324.8-894.9L324.8-894.9z"/>
			<path id="path6729" fill="#FF0000" d="M377.2-884.7c1.5,1.6,2.6,3.4,3.3,5.4c0.7,2,1.1,4.2,1.1,6.8c0,6.2-2.3,11.3-6.8,15.3
				c-4.6,4-10.2,6-17,6c-3.1,0-6.2-0.5-9.4-1.5c-3.1-1-5.8-2.1-8.1-3.5l-2.1,3.6h-3.9l-0.7-23.9h4c0.8,3,1.8,5.6,2.9,8
				s2.6,4.6,4.4,6.7c1.7,1.9,3.7,3.5,6,4.6c2.3,1.2,4.9,1.7,8,1.7c2.3,0,4.2-0.3,5.9-0.9c1.7-0.6,3.1-1.4,4.1-2.5s1.8-2.4,2.3-3.8
				c0.5-1.5,0.8-3.1,0.8-5c0-2.8-0.8-5.4-2.4-7.8c-1.6-2.4-3.9-4.2-7-5.5c-2.1-0.9-4.6-1.8-7.3-2.8c-2.8-1-5.1-2-7.1-2.9
				c-3.9-1.8-7-4.1-9.2-7s-3.3-6.6-3.3-11.3c0-2.7,0.5-5.1,1.6-7.4c1.1-2.3,2.6-4.4,4.6-6.2c1.9-1.7,4.2-3,6.7-4
				c2.6-1,5.3-1.5,8.1-1.5c3.2,0,6.1,0.5,8.6,1.5s4.9,2.1,7,3.4l2-3.3h3.9l0.4,23.2h-4c-0.7-2.7-1.5-5.2-2.4-7.6
				c-0.9-2.4-2.1-4.6-3.5-6.6c-1.4-1.9-3.1-3.4-5.2-4.6c-2-1.1-4.5-1.7-7.5-1.7c-3.1,0-5.8,1-8,3s-3.3,4.5-3.3,7.3
				c0,3,0.7,5.5,2.1,7.5s3.5,3.6,6.2,4.9c2.4,1.2,4.8,2.1,7.1,3c2.3,0.8,4.6,1.7,6.7,2.7c2,0.9,3.9,1.8,5.7,2.9
				C374.3-887.4,375.9-886.1,377.2-884.7L377.2-884.7z"/>
			<path id="path6731" fill="#FF0000" d="M374.8-836.8c0-1.6,0.4-3,1.4-4c0.9-1,2-1.6,3.4-1.6c1,0,2,0.2,2.7,0.6
				c0.8,0.4,1.4,0.9,2,1.5c0.5,0.5,1,1.2,1.6,2c0.6,0.9,1,1.6,1.3,2.1c1.6-0.9,3.6-3.2,5.9-6.9s3.9-7,4.9-9.9
				c-3.1-7.8-5.9-14.7-8.5-20.9c-2.5-6.1-5.2-12.5-7.9-19.1c-0.6-1.5-1.7-2.7-3.2-3.5s-3-1.4-4.4-1.6v-3.2h22.2v3.4
				c-1,0-2.2,0.2-3.5,0.6c-1.4,0.4-2.1,0.8-2.1,1.3c0,0.2,0.1,0.5,0.2,1s0.3,0.9,0.5,1.4c1.2,3.3,3.1,7.9,5.7,14.1
				c2.6,6.1,4.5,11,6,14.7c1.5-3.5,3-7.1,4.6-10.9c1.6-3.8,3.4-8.2,5.3-13.3c0.2-0.6,0.6-1.5,1-2.6s0.6-2,0.6-2.8
				c0-0.9-0.7-1.7-2.2-2.4s-2.9-1.2-4.3-1.4v-3.2h18v3.1c-1,0.2-2.3,0.7-3.9,1.7s-2.8,2.3-3.6,4.1c-3.9,9.1-7.4,17.3-10.4,24.8
				s-5.3,12.9-6.9,16.4c-2.1,4.6-3.9,8.2-5.5,10.8s-3.2,4.6-4.8,6.1c-1.5,1.4-2.9,2.3-4.1,2.8s-2.5,0.7-3.8,0.7
				c-2.6,0-4.6-0.6-6-1.8C375.6-833.8,374.8-835.2,374.8-836.8L374.8-836.8z"/>
			<path id="path6733" fill="#FF0000" d="M449.8-876.4c1.3,1.2,2.4,2.5,3.1,4.1c0.7,1.5,1.1,3.4,1.1,5.7c0,4.5-1.7,8.2-5,11
				c-3.4,2.9-7.7,4.3-13.1,4.3c-2.8,0-5.4-0.5-7.8-1.5s-4.1-2-5.1-2.8l-1,3.2h-3.7l-0.5-16.9h3.4c0.3,1.3,0.8,2.8,1.7,4.5
				c0.9,1.7,1.9,3.2,3.1,4.6c1.3,1.4,2.8,2.7,4.6,3.6c1.8,1,3.8,1.5,6,1.5c3.1,0,5.6-0.7,7.3-2.1c1.7-1.4,2.6-3.5,2.6-6.1
				c0-1.4-0.3-2.6-0.8-3.6s-1.3-1.9-2.4-2.6c-1.1-0.8-2.4-1.4-4-2s-3.3-1.2-5.3-1.8c-1.5-0.5-3.3-1.1-5.1-1.9
				c-1.9-0.8-3.5-1.8-4.9-2.8c-1.4-1.1-2.6-2.6-3.5-4.2c-0.9-1.7-1.4-3.6-1.4-5.9c0-4,1.5-7.3,4.4-10.1c3-2.8,6.9-4.1,11.9-4.1
				c1.9,0,3.9,0.2,5.8,0.7c2,0.5,3.6,1.1,4.9,1.8l1.1-2.6h3.5l0.7,15.6H448c-0.7-3.5-2.2-6.3-4.5-8.5s-5.1-3.3-8.4-3.3
				c-2.7,0-4.8,0.7-6.4,2c-1.5,1.4-2.3,3-2.3,4.9c0,1.5,0.3,2.7,0.8,3.7s1.3,1.8,2.3,2.5s2.2,1.3,3.7,1.8c1.5,0.6,3.3,1.2,5.5,1.9
				s4.2,1.5,6.1,2.4C446.9-878.6,448.5-877.5,449.8-876.4L449.8-876.4z"/>
			<path id="path6735" fill="#FF0000" d="M480.8-854.8c-2.1,0.9-4.2,1.6-6.1,2.2c-1.9,0.6-4.2,0.9-7,0.9c-4.1,0-6.9-1-8.6-3.1
				s-2.5-5-2.5-8.7v-32.9h-8.8v-4.7h9v-15.1h9v15.1h13.9v4.7h-13.8v27.1c0,2,0.1,3.7,0.2,5.1s0.5,2.6,1.1,3.6c0.5,1,1.3,1.7,2.4,2.2
				s2.5,0.7,4.2,0.7c0.8,0,2-0.1,3.6-0.2c1.6-0.1,2.7-0.3,3.4-0.6L480.8-854.8L480.8-854.8z"/>
			<path id="path6737" fill="#FF0000" d="M518.3-864.1c-2,3.9-4.8,7-8.2,9.3c-3.4,2.3-7.3,3.4-11.8,3.4c-3.9,0-7.3-0.7-10.3-2.1
				c-2.9-1.4-5.4-3.3-7.3-5.6c-1.9-2.4-3.3-5.1-4.3-8.3c-0.9-3.2-1.4-6.5-1.4-10c0-3.2,0.5-6.2,1.5-9.3c1-3,2.5-5.8,4.4-8.2
				c1.9-2.3,4.2-4.2,7-5.6c2.8-1.4,5.9-2.1,9.3-2.1c3.5,0,6.6,0.6,9.1,1.7c2.5,1.1,4.6,2.6,6.2,4.6c1.5,1.8,2.6,4,3.4,6.5
				c0.7,2.5,1.1,5.2,1.1,8.1v3.3h-32c0,3.2,0.3,6.1,0.9,8.7c0.6,2.6,1.6,4.9,2.9,6.8c1.3,1.9,3,3.4,5,4.5c2.1,1.1,4.5,1.6,7.4,1.6
				s5.4-0.7,7.6-2c2.1-1.4,4.2-3.8,6.1-7.4L518.3-864.1z M507.4-882.6c0-1.8-0.2-3.8-0.5-5.9c-0.3-2.1-0.8-3.9-1.5-5.3
				c-0.8-1.5-1.8-2.7-3.1-3.7c-1.3-0.9-3-1.4-5.1-1.4c-3.4,0-6.3,1.4-8.6,4.3c-2.3,2.9-3.5,6.9-3.7,12L507.4-882.6L507.4-882.6z"/>
			<path id="path6739" fill="#FF0000" d="M596.7-852.6H573v-3.3c0.8-0.1,1.5-0.1,2.3-0.2c0.8-0.1,1.4-0.2,2-0.4
				c0.9-0.3,1.6-0.8,2-1.6c0.4-0.7,0.7-1.7,0.7-2.9v-25c0-3.4-0.8-6-2.3-7.9c-1.6-1.9-3.5-2.8-5.8-2.8c-1.6,0-3.1,0.2-4.5,0.7
				s-2.7,1.2-3.9,2.1c-1,0.7-1.8,1.5-2.4,2.3c-0.6,0.8-1.1,1.5-1.5,2.1v28c0,1.2,0.2,2.1,0.6,2.8c0.4,0.7,1.1,1.3,2,1.7
				c0.8,0.3,1.4,0.5,2,0.7c0.6,0.1,1.4,0.3,2.4,0.3v3.2h-23.2v-3.2c0.8-0.1,1.5-0.1,2.2-0.2c0.7-0.1,1.4-0.2,1.9-0.4
				c0.9-0.3,1.6-0.8,2-1.5s0.7-1.7,0.7-2.9v-25c0-3.4-0.8-6-2.3-7.9c-1.6-1.9-3.5-2.8-5.8-2.8c-1.6,0-3.1,0.3-4.5,0.8
				s-2.7,1.2-3.9,2.1c-1,0.7-1.8,1.5-2.4,2.4c-0.7,0.9-1.1,1.6-1.5,2v27.8c0,1.1,0.2,2.1,0.7,2.8c0.5,0.8,1.1,1.3,2.1,1.7
				c0.7,0.3,1.4,0.6,2.1,0.7c0.7,0.2,1.5,0.3,2.4,0.3v3.3h-23.6v-3.3c0.8-0.1,1.5-0.1,2.3-0.2c0.8-0.1,1.5-0.2,2.1-0.4
				c0.9-0.3,1.6-0.8,2-1.6c0.4-0.7,0.7-1.7,0.7-2.9v-30.2c0-1-0.2-2-0.7-2.8s-1.1-1.6-2-2.1c-0.6-0.4-1.4-0.7-2.3-1
				c-0.9-0.2-1.9-0.4-2.9-0.5v-3.2l16.3-1.1l0.7,0.7v6.9h0.3c0.8-0.8,1.8-1.8,3-2.9c1.2-1.1,2.3-2,3.3-2.7c1.1-0.8,2.6-1.4,4.3-2
				c1.7-0.5,3.6-0.8,5.6-0.8c3.2,0,5.9,0.8,8.1,2.5c2.3,1.7,3.9,3.7,4.9,6.1c1.2-1.1,2.2-2.2,3.1-3c0.9-0.9,2.1-1.8,3.6-2.8
				c1.2-0.9,2.7-1.5,4.4-2.1c1.7-0.5,3.6-0.8,5.6-0.8c4.1,0,7.4,1.4,9.8,4c2.4,2.7,3.6,6.8,3.6,12.4v24.7c0,1.2,0.2,2.1,0.6,2.8
				c0.4,0.7,1.1,1.3,2,1.7c0.8,0.3,1.5,0.5,2.2,0.7c0.7,0.1,1.6,0.3,2.5,0.3L596.7-852.6L596.7-852.6L596.7-852.6L596.7-852.6z"/>
		</g>
		<g id="text6704" transform="scale(1.0267638,0.97393384)">
			<path id="path6742" fill="#FF0000" d="M617.5,64.7h-6.3v-1c0.2,0,0.5,0,0.8-0.1c0.4,0,0.6-0.1,0.7-0.1c0.2-0.1,0.3-0.2,0.4-0.3
				c0.1-0.1,0.1-0.2,0.1-0.4v-8.3h-0.3l-4.5,9.7h-0.6l-4.3-9.9h-0.3V61c0,0.6,0,1.1,0.1,1.5c0.1,0.3,0.2,0.6,0.4,0.8
				c0.2,0.1,0.4,0.2,0.8,0.3c0.4,0.1,0.7,0.2,1,0.2v1h-5.8v-0.9c0.2,0,0.5-0.1,0.9-0.1c0.4-0.1,0.7-0.1,0.9-0.3s0.3-0.4,0.4-0.7
				c0.1-0.3,0.1-0.8,0.1-1.6v-6.4c0-0.3,0-0.5-0.1-0.7s-0.2-0.4-0.4-0.5s-0.4-0.3-0.7-0.3c-0.3-0.1-0.6-0.1-0.9-0.1v-0.9h5.1
				l3.9,8.7l3.2-7.1c0.1-0.3,0.2-0.6,0.3-0.9c0.1-0.3,0.1-0.5,0.2-0.7h4.9V53c-0.2,0-0.5,0-0.8,0.1s-0.6,0.1-0.7,0.1
				c-0.2,0-0.3,0.1-0.3,0.3c0,0.1-0.1,0.3-0.1,0.4v8.9c0,0.2,0,0.3,0.1,0.4c0,0.1,0.2,0.2,0.3,0.3c0.1,0,0.3,0.1,0.6,0.1
				c0.3,0.1,0.6,0.1,0.9,0.1L617.5,64.7L617.5,64.7L617.5,64.7z M597.7,55.7h-0.9c-0.1-0.4-0.4-0.9-0.7-1.5c-0.4-0.6-0.7-0.9-1.1-1
				c-0.3,0-0.5,0-0.8-0.1c-0.3,0-0.5,0-0.6,0h-0.9v9.6c0,0.2,0,0.3,0.1,0.4c0.1,0.1,0.2,0.2,0.4,0.3c0.1,0,0.3,0.1,0.7,0.2
				c0.3,0.1,0.6,0.1,0.9,0.1v1h-6.5v-1c0.2,0,0.5,0,0.9-0.1c0.4,0,0.6-0.1,0.7-0.1c0.2-0.1,0.3-0.2,0.4-0.3c0.1-0.1,0.1-0.3,0.1-0.4
				v-9.7h-0.9c-0.2,0-0.4,0-0.7,0s-0.5,0-0.7,0c-0.4,0.1-0.8,0.4-1.1,1c-0.4,0.6-0.6,1.1-0.7,1.5h-0.9V52h12.5L597.7,55.7
				L597.7,55.7z"/>
		</g>
	</g>
</g>
<g>
	<path fill="#17569B" d="M403.4,60.1c-8.7,7.8-16.5,14.8-24.3,21.8c-5.7,5.1-15.7,3.9-20-2.4c-3.8-5.6-7.6-11.2-12-17.8
		c-1.5,6.6-3,12.1-3.8,17.7c-0.6,4.4-2.6,5.6-6.8,5.4c-6.5-0.4-6.5-0.1-5.1-6.3c2.1-9.4,4.2-18.8,6.2-28.3c0.6-3.2,1.7-4.4,5.4-4.7
		c5.7-0.3,9.1,1.4,11.9,6.4c3.9,7,8.9,13.3,12.8,20.2c2.4,4.3,4,3.7,7.2,0.8c9.2-8.5,18.6-16.6,28-24.9c2-1.8,12.5-3.3,14.7-2.2
		c1.3,0.6,0.9,1.6,0.7,2.5c-2.5,11.4-5.2,22.7-7.6,34.1c-0.7,3.5-3.2,2.3-5.1,2.3c-7.5,0.2-7.5,0.1-6-7.1
		C400.7,72.1,401.9,66.7,403.4,60.1z"/>
	<path fill="#17569B" d="M81,45.1c0.4,5.6-1.9,7.3-7.3,7.2c-16.3-0.4-32.7,0-49-0.2c-3.5,0-4.9,1.1-5.8,4.5
		c-0.9,3.8,0.2,4.6,3.8,4.6c14.5-0.1,29-0.1,43.5-0.1c10.8,0,11.5,0.9,9.2,11.6c-0.4,1.6-0.7,3.3-1.1,4.9c-1.4,4.6-5.1,7.4-9.9,7.4
		c-19.3,0-38.7,0.1-58-0.1c-1.5,0-4.8,1.7-4.4-1.8C2.3,80.7,1.9,77,6.7,77c17.3,0.2,34.7,0.1,52,0.1c1.9,0,3.9,0.4,5-2.2
		c2.2-5.3,1.4-6.8-4.4-6.8c-15,0-30,0-45,0c-7.1,0-8.4-1.8-6.9-8.9c3-14.2,3-14.2,17.2-14.2c17.2,0,34.3,0,51.5,0
		C77.7,45.1,79.4,45.1,81,45.1z"/>
	<path fill="#17569B" d="M125.3,45.1c9.7,0,19.3-0.1,29,0.1c1.4,0,4.2-1.4,4.1,1.6c-0.1,2.5,0,5.7-4.5,5.4c-6.3-0.4-12.6-0.1-19-0.1
		c-10.8,0-21.6,0-32.5,0c-4.4,0-7.5,3.6-6.6,7.6c0.5,2.2,2.4,1.3,3.7,1.3c12.8,0.1,25.6,0,38.5,0.2c1.4,0,4.6-1.9,4.4,1.8
		c-0.1,2.6-0.3,5.4-4.7,5.3c-13.1-0.3-26.3-0.1-39.5-0.1c-3.7,0-6.8,4.3-5.6,7.6c0.8,2.2,2.8,1.3,4.3,1.3c16.6,0.1,33.3,0,49.9,0.1
		c1.4,0,4.7-1.8,4.4,1.7c-0.2,2.6,0.4,6.3-4.8,6.2c-19.6-0.3-39.3-0.1-58.9-0.1c-5.1,0-7.6-3-6.6-8c1.8-8.3,3.7-16.6,5.6-24.8
		c1.1-4.7,4-7,8.9-7C105.3,45.1,115.3,45.1,125.3,45.1z"/>
	<path fill="#17569B" d="M201.6,45.1c9.7,0,19.3-0.1,29,0.1c1.7,0,5.1-2.3,5,2.2c0,3.8-1.8,5-5.6,4.8c-9-0.3-18-0.1-27-0.1
		c-8.5,0-17,0.2-25.5-0.1c-3.4-0.1-5.2,0.9-5.8,4.4c-1,5.6-2.2,11.1-3.6,16.6c-0.7,2.7-0.5,4.1,2.8,4.1c14.6-0.1,29.3,0,43.9,0
		c5,0,4.2-4.2,4.5-6.9c0.3-3.2-2.8-1.8-4.5-2c-2.1-0.2-4.3,0.1-6.5-0.1c-1.4-0.2-4.3,1.4-3.6-2.1c0.4-2.2,0-5.1,4-5
		c7,0.3,14,0.1,21,0.1c2,0,3,0.2,2.4,2.8c-1.5,6-2.8,12-4,18c-0.5,2.4-1.4,3.2-3.9,3.2c-20.6-0.1-41.3,0-61.9-0.1
		c-4.4,0-6.9-3.1-6-7.5c1.7-8.6,3.6-17.3,5.7-25.8c1.1-4.4,4.2-6.6,8.8-6.5C181,45.1,191.3,45.1,201.6,45.1z"/>
	<path fill="#17569B" d="M543.6,68.7c7.7,5.6,14.1,10.3,21.5,15.7c-10,0.4-18.5,1.3-26.1-5.7c-6.5-6-14.3-10.7-21.3-17.1
		c3.5,0,7,0,10.5,0c8.7,0,17.3,0,26,0c3.5,0,6.6-4.3,5.5-7.5c-0.5-1.5-1.7-1.4-2.9-1.4c-14.3,0-28.6,0-43-0.1c-2.5,0-3,1.3-3.4,3.3
		c-1.7,8.1-3.7,16.2-5.3,24.4c-0.7,3.5-2.1,4.9-5.6,4.3c-1.3-0.2-2.7-0.1-4,0c-2.6,0.2-3.6-0.4-2.9-3.3c2.6-10.8,5-21.7,7.3-32.6
		c0.5-2.4,1.5-3.2,4-3.2c20.5,0.1,41,0,61.4,0.1c5,0,6.6,2.1,6,6.9c0,0.2-0.1,0.3-0.1,0.5c-3.2,14.3-2.3,16.3-18.5,15.7
		C550.2,68.6,547.6,68.7,543.6,68.7z"/>
	<path fill="#17569B" d="M230,85c-0.3-2.3,1.2-3.1,2.2-4.1c9.2-10.5,18.6-20.9,27.7-31.5c2.6-3,5.3-4,9.3-4.4
		c7.1-0.6,11.6,1.9,15.6,7.7c6.7,9.5,14.2,18.5,21.3,27.7c0.9,1.2,3,2.3,2.1,4.1c-0.7,1.4-2.7,0.4-4.1,0.6c-1,0.1-2-0.1-3,0
		c-4.8,0.9-8.2-0.9-10.4-5.2c-1.8-3.6-4.8-4.4-8.7-4.2c-8,0.3-15.9,0.1-24.6,0.1c2.8-4.2,4.9-7.7,10.5-7.1c4.3,0.5,8.6,0.1,14.1,0.1
		c-3.8-4.9-7.1-9.2-10.4-13.3c-1.8-2.3-2.5,0.2-3.3,1.1c-7.3,8.2-14.8,16.3-21.8,24.8c-2.4,2.9-4.7,4.1-8.3,3.8
		C235.5,84.8,232.7,85,230,85z"/>
	<path fill="#17569B" d="M440.1,76.1c5.5-11.3,15.5-4.9,23.8-7.6c-3.4-4.3-6.5-8.7-9.9-12.7c-1.8-2.1-2.5,0.5-3.3,1.3
		c-6.7,7.4-13.5,14.8-19.8,22.5c-3.1,3.8-6.5,5.7-11.5,5c-2.1-0.3-4.3,0-6.5,0c-0.4-2,1.2-2.8,2.1-3.8c8.9-10.2,18.1-20.1,26.7-30.5
		c3.1-3.8,6.4-4.6,11-5c6.2-0.5,10,1.7,13.6,6.6c7.8,10.8,16.2,21.1,24.5,31.7c-8.6,2.6-14,1.3-19-5.1c-1.7-2.1-3.5-2.7-6-2.6
		C457.5,76.1,449.1,76.1,440.1,76.1z"/>
	<path fill="#17569B" d="M587.4,65.9C601,58.5,615,52,629.3,46.2c5-2,11.5-0.3,17.9,0.6c-13.4,6.3-26.9,12.5-40.9,19.1
		c11.6,6.2,22.5,12,33.3,17.9c-10,0.8-19.7,2-28.7-4.3c-7.3-5.1-15.6-8.8-23.5-13.2L587.4,65.9L587.4,65.9z"/>
	<path fill="#17569B" d="M587.4,65.9v0.4c-3.2,4.3-2.6,9.7-4.3,14.5c-0.5,1.4,0.2,3.8-2.3,3.8c-3.3,0-6.7,0.1-9.9-0.4
		c-0.9-0.1-0.1-2.1,0.1-3.1c2.3-10.4,4.8-20.8,6.8-31.2c0.7-3.6,2.3-4.4,5.7-4.3c7.4,0.2,7.2,0,5.9,7.4
		C588.6,57.2,586.3,61.3,587.4,65.9z"/>
	<path fill="#17569B" d="M651.6,83.6c18.9,0,37.7,0,56.6,0c1.8,0,3.7,0.6,5.2-0.8c1.3,0.2,2.9-0.7,3.9,0.9c-0.6,1.4-1.7,0.9-2.6,0.9
		c-20.1,0-40.1,0-60.2,0C653.5,84.6,652.1,85.3,651.6,83.6z"/>
	<path fill="#17569B" d="M709.5,29.7c-15.5,0-31,0-46.5,0c-1.2,0-3.1-0.8-3.2,1.2c-0.1,1.6,1.6,1.2,2.7,1.3c3.7,0.4,4,2.4,3.2,5.6
		c-2.9,12.1-5.6,24.3-8,36.6c-0.8,4.1-2.2,7.3-6,9.2c0.3,0.1,0.6,0.4,0.9,0.4c19.6,0.1,39.2,0,58.7,0.1c0.9,0,2.1,0.2,2.2-1.3
		c-3-1.6-2.2-4.1-1.6-6.5c2.5-11.5,5.4-22.9,7.5-34.5c1.1-6.2,3.3-10.3,10.2-10.2c0-0.7,0-1.3,0-2C722.8,29.7,716.1,29.7,709.5,29.7
		z M686,37.8c-2.9,13.1-5.8,26.2-8.7,39.4c-0.3,1.3-0.8,2.6-1.5,3.6c-0.7,1.1-1.8,2.1-3.3,1.6c-1.6-0.6-2.1-2-2-2.7
		c3.4-15,6.5-29.1,9.7-43.2c0.5-2.3,1.8-4.3,4.4-3.7C687.1,33.4,686.4,35.8,686,37.8z M706.5,36.6c-2.5,11.1-5,22.5-7.6,34
		c-0.6,2.9-1.2,5.9-2.1,8.7c-0.6,1.8-1.9,3.5-4,3c-2.3-0.5-2.2-2.5-1.7-4.4c3.1-13.7,6.1-27.5,9.2-41.3c0.5-2.3,1.7-4.2,4.3-3.9
		C706.5,32.9,706.7,34.6,706.5,36.6z"/>
</g>
<g>
	<g>
		<path d="M39.3,34h-3.6v-2.3H14.9v-3.5h20.8V12.6H15.4V9.1h24V34H39.3z"/>
		<path fill="#D3D3D3" d="M39.9,34.5h-4.7v-2.3H14.4v-4.5h20.8V13.1H14.9V8.6h25V34.5z M36.2,33.5h2.7V9.6h-23v2.5h20.3v16.6H15.4
			v2.5h20.8C36.2,31.2,36.2,33.5,36.2,33.5z"/>
	</g>
	<g>
		<path d="M63,13.2l-2.2,3c-3.2-2.4-6.6-4.7-10.3-6.8l1.8-3C56.4,8.6,59.9,10.8,63,13.2z M78.6,12.5c-2.6,7-5.9,12-9.8,15.2
			c-3.7,3-9.3,5.2-16.8,6.7l-1-3.6c6.8-1.1,12-3.1,15.4-5.8c3.6-2.8,6.6-7.4,8.9-13.8L78.6,12.5z"/>
		<path fill="#D3D3D3" d="M51.6,35l-1.3-4.6l0.6-0.1c6.6-1.1,11.8-3,15.2-5.7c3.6-2.8,6.5-7.3,8.7-13.6l0.2-0.5l4.2,1.7L79,12.7
			c-2.6,6.9-5.9,12.1-10,15.4c-3.7,3-9.3,5.3-17,6.8L51.6,35z M51.6,31.2l0.7,2.6c7.3-1.5,12.6-3.6,16.1-6.5c3.8-3.1,7-8,9.5-14.5
			l-2.4-0.9c-2.3,6.2-5.3,10.7-8.9,13.5C63.3,28.1,58.2,30.1,51.6,31.2z M60.9,16.9l-0.4-0.3C57,14,53.6,11.8,50.3,9.8l-0.4-0.3
			l2.3-3.8L52.5,6c4.2,2.3,7.7,4.5,10.8,6.8l0.4,0.3L60.9,16.9z M51.2,9.2c3.1,1.8,6.3,3.9,9.5,6.3l1.6-2.2c-2.8-2.1-6-4.2-9.8-6.2
			L51.2,9.2z"/>
	</g>
	<g>
		<path d="M113.1,29.5l-0.1,3.8c-5.8,0.4-10.1,0.6-12.9,0.6c-4.4,0-7.2-0.3-8.4-1c-1.6-0.9-2.4-2.9-2.3-6.2l0.1-21.1h3.6L93,16.2
			c7.2-2.1,12.7-4.4,16.7-6.9l2.2,3c-4.7,2.7-10.9,5.2-18.8,7.5v6.7c0,1.2,0,2,0.2,2.4c0.2,0.6,0.9,1.1,1.8,1.2
			c0.8,0.1,2.4,0.2,4.9,0.2C103.5,30.3,107.9,30.1,113.1,29.5z M117.2,6c0,1.1-0.4,2-1.1,2.7s-1.6,1.1-2.7,1.1s-2-0.4-2.7-1.1
			c-0.7-0.7-1-1.6-1-2.7c0-1,0.4-1.9,1.1-2.7c0.7-0.7,1.6-1.1,2.7-1.1s2,0.4,2.7,1.1C116.9,4.1,117.2,5,117.2,6z M115,6
			c0-0.4-0.2-0.8-0.5-1.1c-0.3-0.3-0.7-0.4-1.1-0.4s-0.8,0.1-1.1,0.4c-0.3,0.3-0.5,0.7-0.5,1.1s0.2,0.8,0.5,1.1
			c0.3,0.3,0.7,0.5,1.1,0.5s0.8-0.2,1.1-0.5C114.9,6.8,115,6.4,115,6z"/>
		<path fill="#D3D3D3" d="M100.1,34.4c-4.7,0-7.4-0.3-8.7-1.1c-1.8-1-2.7-3.2-2.5-6.6L89,5.1h4.6l-0.1,10.4c6.7-2,12.1-4.2,15.9-6.7
			l0.4-0.2l2.8,3.8l-0.5,0.3c-4.7,2.7-10.9,5.2-18.5,7.4v6.3c0,1.1,0,1.9,0.1,2.2c0.1,0.4,0.6,0.8,1.4,0.9c0.5,0.1,1.9,0.2,4.8,0.2
			c4.1,0,8.5-0.3,13-0.8l0.6-0.1l-0.1,4.8h-0.5C107.2,34.2,102.9,34.4,100.1,34.4z M90,6.1l-0.1,20.6c-0.1,3.1,0.6,4.9,2,5.8
			c1.1,0.6,3.7,0.9,8.2,0.9c2.7,0,6.9-0.2,12.4-0.6l0.1-2.8c-4.4,0.5-8.6,0.7-12.6,0.7c-3,0-4.5-0.1-5-0.2c-1.1-0.1-1.9-0.7-2.2-1.5
			c-0.2-0.4-0.2-1.2-0.2-2.6v-7.1l0.4-0.1c7.4-2.2,13.6-4.6,18.2-7.2l-1.6-2.2c-4,2.5-9.6,4.7-16.4,6.7l-0.6,0.2l0.1-10.8H90V6.1z
			 M113.4,10.3c-1.2,0-2.2-0.4-3.1-1.2c-0.8-0.8-1.1-1.8-1.1-3.1c0-1.1,0.4-2.1,1.2-3c0.9-0.9,1.9-1.3,3.1-1.3s2.2,0.4,3.1,1.2
			c0.8,0.9,1.1,1.9,1.1,3.1s-0.4,2.2-1.2,3.1C115.6,9.9,114.6,10.3,113.4,10.3z M113.5,2.7c-0.9,0-1.7,0.3-2.3,1
			c-0.6,0.7-1,1.5-1,2.3c0,1,0.3,1.8,0.9,2.3c0.6,0.6,1.4,1,2.3,1s1.7-0.3,2.3-1c0.6-0.6,1-1.4,1-2.3s-0.3-1.7-0.9-2.4
			C115.2,3,114.4,2.7,113.5,2.7z M113.4,8.1c-0.5,0-1-0.2-1.5-0.6s-0.6-0.9-0.6-1.5c0-0.5,0.2-1,0.6-1.5c0.4-0.4,0.9-0.5,1.5-0.5
			s1.1,0.2,1.5,0.5c0.4,0.4,0.6,0.9,0.6,1.5s-0.2,1.2-0.7,1.5C114.4,7.9,113.9,8.1,113.4,8.1z M113.4,5c-0.3,0-0.6,0.1-0.7,0.3
			c-0.2,0.2-0.4,0.5-0.4,0.7s0.1,0.5,0.4,0.7c0.4,0.4,1.1,0.4,1.5,0c0.3-0.2,0.4-0.4,0.4-0.7c0-0.2-0.1-0.5-0.4-0.7
			C114,5.1,113.7,5,113.4,5z"/>
	</g>
	<g>
		<path d="M147,32.6l-23.5-0.1v-3.3l15.2,0.1l0.7-11.9h-12.6v-3.3H143l-0.8,15.2h4.8V32.6z"/>
		<path fill="#D3D3D3" d="M147.5,33.1L123,33v-4.3l15.2,0.1l0.6-10.9h-12.6v-4.3h17.2l-0.8,15.2h4.8L147.5,33.1L147.5,33.1z M124,32
			l22.5,0.1v-2.3h-4.8l0.8-15.2h-15.2v2.3h12.6l-0.8,12.9L124,29.7V32z"/>
	</g>
	<g>
		<path d="M184.6,21.8h-26.1v-4.2h26.1V21.8z"/>
		<path fill="#D3D3D3" d="M185.1,22.3H158v-5.2h27.1V22.3z M159,21.3h25.1v-3.2H159V21.3z"/>
	</g>
	<g>
		<path d="M219.6,10.4c0,0.5-0.2,0.9-0.7,1.2c-1.6,6-3.9,10.7-6.7,14.3c-3.1,3.8-7.4,6.9-13,9.3c-0.4-0.9-1.1-1.9-2.1-3.2
			c5.2-2.2,9.3-5.1,12.3-8.6c-2.7-1.9-5.5-3.6-8.4-5l1.8-3c2.1,1.1,3.6,1.9,4.5,2.4c1.6,0.9,3,1.7,4.2,2.6c1.2-2.1,2.4-4.9,3.6-8.4
			h-11.4c-2,3.4-4.8,6.7-8.4,9.9l-2.4-2.5c4.8-4.4,8.3-9.5,10.6-15.3l3.3,1.5c-0.5,1.1-0.9,2.1-1.3,3H216l1-0.6
			C218.7,9.4,219.6,10.1,219.6,10.4z"/>
		<path fill="#D3D3D3" d="M198.9,35.9l-0.2-0.5c-0.4-0.9-1.1-1.9-2-3.1l-0.4-0.5l0.6-0.3c4.9-2.1,8.8-4.8,11.8-8
			c-2.7-1.8-5.3-3.4-7.9-4.6l-0.5-0.2l2.3-3.9L203,15c2.1,1.1,3.6,1.9,4.5,2.4c1.5,0.8,2.7,1.5,3.8,2.3c1-1.9,2-4.3,3.1-7.2H204
			c-2,3.3-4.8,6.6-8.4,9.8l-0.4,0.3l-3.1-3.2l0.4-0.3c4.7-4.3,8.2-9.4,10.5-15.1l0.2-0.5l4.2,1.9l-0.2,0.5c-0.3,0.6-0.5,1.2-0.8,1.8
			c-0.1,0.2-0.1,0.3-0.2,0.5h9.6l1.2-0.7l0.8,0.7c1.7,1.4,2.2,1.8,2.2,2.3c0,0.6-0.3,1.1-0.8,1.5c-1.5,5.7-3.8,10.5-6.7,14.3
			c-3.2,3.9-7.6,7.1-13.2,9.5L198.9,35.9z M197.9,32.2c0.7,0.9,1.2,1.6,1.6,2.3c5.2-2.3,9.4-5.3,12.4-9c2.9-3.7,5.1-8.4,6.6-14.1
			l0.1-0.2l0.2-0.1c0.3-0.2,0.4-0.4,0.5-0.7c-0.2-0.2-1-0.9-1.9-1.6L217,8.6l-0.8,0.5h-11.4l0.3-0.7c0.2-0.4,0.3-0.8,0.5-1.2
			c0.2-0.4,0.4-0.9,0.6-1.4l-2.4-1.1c-2.3,5.5-5.7,10.5-10.2,14.6l1.7,1.8c3.4-3.1,6-6.2,7.9-9.5l0.1-0.2h12.4l-0.2,0.7
			c-1.2,3.5-2.4,6.4-3.6,8.5l-0.3,0.5l-0.5-0.3c-1.1-0.9-2.5-1.6-4.1-2.6c-0.8-0.5-2.2-1.2-4.1-2.2l-1.3,2.1c2.6,1.3,5.3,2.9,8,4.8
			l0.5,0.3l-0.4,0.4C206.8,27.2,202.8,30,197.9,32.2z M219.1,10.5L219.1,10.5L219.1,10.5z"/>
	</g>
	<g>
		<path d="M257.8,18.8h-12c-0.1,4.7-0.9,8.1-2.3,10.2c-1.5,2.2-4.5,4.2-9,5.9c-0.6-0.9-1.3-2-2.3-3.1c4.1-1.3,6.7-2.9,7.9-4.5
			s1.8-4.4,1.8-8.5h-12.8v-3.5h28.6v3.5C257.7,18.8,257.8,18.8,257.8,18.8z M254.1,10.4h-22V7h22V10.4z"/>
		<path fill="#D3D3D3" d="M234.3,35.5l-0.4-0.6c-0.6-0.8-1.2-1.8-2.1-2.8l-0.5-0.6l0.7-0.2c3.7-1.2,6.4-2.7,7.7-4.3
			c1.1-1.4,1.6-4,1.7-7.7h-12.8v-4.5h29.6v4h-0.4v0.5h-11.5c-0.1,4.5-0.9,7.8-2.4,10c-1.6,2.3-4.7,4.4-9.2,6.1L234.3,35.5z
			 M233.1,32c0.7,0.8,1.2,1.6,1.6,2.2c4.1-1.6,7-3.5,8.4-5.6s2.1-5.4,2.2-9.9v-0.5h11.9v-2.5h-27.6v2.5h12.8v0.5
			c0,4.2-0.6,7.1-1.9,8.8C239.2,29.3,236.7,30.8,233.1,32z M254.6,10.9h-23V6.5h23V10.9z M232.6,9.9h21V7.5h-21V9.9z"/>
	</g>
	<g>
		<path d="M294.8,19.9c-3,3.7-6,6.7-9,8.9c-3.2,2.4-7,4.2-11.2,5.4c-0.1,0-0.3,0.2-0.7,0.5c-0.3,0.3-0.6,0.4-0.8,0.4
			c-0.3,0-1.2-1.1-2.4-3.3l0.7-0.5l0.1-25.6h3.6L275,30.3c3.6-1.1,6.8-2.8,9.6-5.1c2.6-2.1,5.2-4.8,7.7-8.2L294.8,19.9z"/>
		<path fill="#D3D3D3" d="M273.1,35.6c-0.2,0-0.9,0-2.8-3.6l-0.2-0.4L271,31V5.2h4.6l-0.1,24.4c3.3-1.1,6.2-2.7,8.8-4.8
			c2.7-2.2,5.3-4.9,7.6-8.1l0.4-0.5l3.2,3.7l-0.3,0.3c-3.1,3.8-6.1,6.8-9.1,9c-3.2,2.4-7,4.2-11.4,5.5l0,0c0,0-0.1,0.1-0.2,0.1
			c-0.1,0.1-0.2,0.2-0.3,0.3C273.9,35.4,273.5,35.6,273.1,35.6z M273.2,34.6L273.2,34.6L273.2,34.6z M271.4,31.9
			c1,1.8,1.6,2.5,1.8,2.6c0.1,0,0.2-0.1,0.4-0.2c0.2-0.1,0.3-0.2,0.4-0.3c0.2-0.2,0.4-0.3,0.6-0.3c4.2-1.2,7.9-3,11-5.3
			c2.8-2.1,5.7-4.9,8.6-8.5l-1.8-2.1c-2.3,3.1-4.8,5.7-7.4,7.8c-2.8,2.3-6.1,4.1-9.8,5.2l-0.6,0.2l0.1-24.8H272l-0.1,25.4
			L271.4,31.9z"/>
	</g>
	<g>
		<path d="M329.1,29.5l-0.1,3.8c-5.8,0.4-10.1,0.6-12.9,0.6c-4.4,0-7.2-0.3-8.4-1c-1.6-0.9-2.4-2.9-2.3-6.2l0.1-21.1h3.6L309,16.2
			c7.2-2.1,12.7-4.4,16.7-6.9l2.2,3c-4.7,2.7-10.9,5.2-18.8,7.5v6.7c0,1.2,0,2,0.2,2.4c0.2,0.6,0.9,1.1,1.8,1.2
			c0.8,0.1,2.4,0.2,4.9,0.2C319.5,30.3,323.9,30.1,329.1,29.5z M330.1,9.3l-2,1.7c-1.1-1.9-2.6-3.6-4.4-5.1l1.8-1.7
			C327.6,5.8,329.2,7.5,330.1,9.3z M333.2,7.1l-2,1.7c-1.1-1.9-2.6-3.6-4.4-5.1l1.8-1.7C330.8,3.7,332.3,5.4,333.2,7.1z"/>
		<path fill="#D3D3D3" d="M316.1,34.4c-4.7,0-7.4-0.3-8.7-1.1c-1.8-1-2.7-3.2-2.5-6.6L305,5.1h4.6l-0.1,10.4
			c6.7-2,12.1-4.2,15.9-6.7l0.4-0.2c-0.7-0.8-1.5-1.6-2.4-2.4L323,5.8l2.5-2.4l0.3,0.3c2.3,1.7,3.9,3.5,4.7,5.3l0.2,0.4l-2.7,2.3
			l0.6,0.8l-0.5,0.3c-4.7,2.7-10.9,5.2-18.5,7.4v6.3c0,1.1,0,1.9,0.1,2.2c0.1,0.4,0.6,0.8,1.4,0.9c0.5,0.1,1.9,0.2,4.8,0.2
			c4.1,0,8.5-0.3,13-0.8l0.6-0.1l-0.1,4.8h-0.5C323.2,34.2,318.9,34.4,316.1,34.4z M306,6.1l-0.1,20.6c-0.1,3.1,0.6,4.9,2,5.8
			c1.1,0.6,3.7,0.9,8.2,0.9c2.7,0,6.9-0.2,12.4-0.6l0.1-2.8c-4.4,0.5-8.6,0.7-12.6,0.7c-3,0-4.5-0.1-5-0.2c-1.1-0.1-1.9-0.7-2.2-1.5
			c-0.2-0.4-0.2-1.2-0.2-2.6v-7.1l0.4-0.1c7.4-2.2,13.6-4.6,18.2-7.2l-1.6-2.2c-4,2.5-9.6,4.7-16.4,6.7l-0.6,0.2l0.1-10.8H306V6.1z
			 M326.1,9l1.1,1.5C326.9,10,326.5,9.5,326.1,9z M324.4,5.9c1.5,1.3,2.8,2.8,3.8,4.4l1.2-1.1c-0.8-1.4-2.1-2.9-3.9-4.3L324.4,5.9z
			 M331.1,9.6l-0.3-0.5c-1-1.8-2.5-3.5-4.3-5L326,3.7l2.5-2.4l0.3,0.3c2.2,1.7,3.8,3.5,4.7,5.3l0.2,0.4L331.1,9.6z M327.5,3.7
			c1.5,1.3,2.8,2.8,3.8,4.4l1.2-1.1c-0.9-1.5-2.2-2.9-3.9-4.3L327.5,3.7z"/>
	</g>
	<g>
		<path d="M366.8,14.7c-1.6,0-4.6,0-9.2,0l-0.1,3c-0.1,4.5-1.4,8.2-3.7,10.9c-2.1,2.4-5.4,4.5-10,6.1l-1.8-3.2c4-1.4,6.9-3.1,8.6-5
			c2-2.1,3-5.1,3.2-8.9l0.1-3h-8.5c-1.6,2.7-3.5,5.2-5.7,7.3l-2.6-2.5c3.9-3.9,6.7-9,8.6-15.3l3.5,1.3c-0.6,2-1.2,3.9-2.1,5.7
			l19.8-0.1L366.8,14.7z M364.1,8.6l-2.1,1.7c-1.1-1.8-2.6-3.5-4.5-5.1l1.9-1.7C361.7,5.2,363.2,6.9,364.1,8.6z M368,7.3L366,9
			c-1.1-1.9-2.6-3.6-4.5-5.1l1.9-1.7C365.5,3.9,367.1,5.6,368,7.3z"/>
		<path fill="#D3D3D3" d="M343.6,35.3l-2.3-4.1l0.6-0.2c3.9-1.4,6.7-3,8.4-4.9c1.9-2,2.9-4.8,3.1-8.6l0.1-2.5h-7.7
			c-1.7,2.8-3.6,5.2-5.6,7.2l-0.3,0.3l-3.3-3.2l0.4-0.4c3.8-3.8,6.6-8.7,8.5-15.1l0.2-0.5l4.4,1.6L350,5.3c-0.5,1.7-1.1,3.4-1.8,5.1
			l13.7-0.1c-1.1-1.7-2.5-3.4-4.4-4.9L357.1,5l2.6-2.4l0.3,0.2c0.4,0.3,0.7,0.5,1,0.8l2.6-2.4l0.3,0.3c2.3,1.9,3.8,3.6,4.7,5.3
			l0.2,0.4L366,9.5L365.7,9c-1.1-1.8-2.5-3.5-4.4-5l0,0c1.5,1.3,2.6,2.7,3.4,4.1l0.2,0.4l-2.2,1.8h4.9l-0.1,4.7h-9.2l-0.1,2.5
			c-0.1,4.5-1.4,8.4-3.8,11.2c-2.2,2.6-5.7,4.7-10.2,6.2L343.6,35.3z M342.7,31.8l1.3,2.3c4.2-1.5,7.3-3.5,9.4-5.8
			c2.2-2.6,3.5-6.3,3.6-10.6l0.1-3.5h9.2l0.1-2.7l-20.1,0.1l0.4-0.7c0.8-1.6,1.4-3.4,1.9-5.2l-2.6-1c-1.9,6.1-4.6,10.9-8.2,14.6
			l1.9,1.8c1.9-1.9,3.7-4.2,5.3-6.9l0.1-0.2h9.3l-0.1,3.5c-0.2,4.1-1.3,7.1-3.3,9.2C349.3,28.7,346.5,30.4,342.7,31.8z M358.3,5.2
			c1.6,1.4,2.9,2.8,3.9,4.4l1.3-1.1c-0.9-1.5-2.2-2.9-4-4.3L358.3,5.2z M362.3,3.9c1.6,1.3,2.9,2.8,3.9,4.4l1.2-1.1
			c-0.8-1.4-2.1-2.8-3.9-4.3L362.3,3.9z"/>
	</g>
	<g>
		<path d="M400.6,21.8h-26.1v-4.2h26.1V21.8z"/>
		<path fill="#D3D3D3" d="M401.1,22.3H374v-5.2h27.1V22.3z M375,21.3h25.1v-3.2H375V21.3z"/>
	</g>
	<g>
		<path d="M438.3,33.5L435,35l-1.7-3.6c-5.1,0.7-13.2,1.3-24.3,1.9c-0.1-0.8-0.3-2.1-0.6-3.7c0.9,0,2.2,0,3.8-0.1
			c5.2-14.2,8-22.3,8.4-24.3l3.7,1.3l-8.2,22.9c6.1-0.3,11.3-0.8,15.5-1.3c-2.3-4.6-4.1-8-5.6-10.2l3.1-1.9
			C431.1,18.9,434.2,24.7,438.3,33.5z"/>
		<path fill="#D3D3D3" d="M434.8,35.7L433,32c-4.8,0.6-12.5,1.2-24,1.9h-0.5l-0.1-0.5c-0.1-0.4-0.2-1.7-0.6-3.7l-0.1-0.6h0.6
			c0.9,0,2,0,3.4-0.1c5.1-13.9,7.9-22,8.3-23.9l0.1-0.6l4.7,1.7l-8.1,22.7c4.7-0.2,9.3-0.6,14-1.2c-1.8-3.6-3.7-7.2-5.2-9.5
			l-0.3-0.4l4-2.4l0.3,0.4c2.1,3.1,5.3,9.2,9.2,17.6l0.2,0.5L434.8,35.7z M433.6,30.9l1.6,3.5l2.4-1.1c-3.6-7.8-6.6-13.5-8.7-16.6
			l-2.2,1.4c1.3,2,2.9,4.9,5.3,9.8l0.3,0.6l-0.7,0.1c-5.2,0.6-10.3,1-15.5,1.3h-0.7l8.3-23.1L421,5.9c-0.7,2.7-3.4,10.5-8.3,23.8
			l-0.1,0.3h-0.3c-1.3,0.1-2.4,0.1-3.2,0.1c0.2,1,0.3,1.9,0.4,2.7c11.5-0.6,19.1-1.2,23.8-1.9H433.6z"/>
	</g>
</g>
</svg>
