<?xml version="1.0" encoding="utf-8"?>
<!-- Generator: Adobe Illustrator 19.2.1, SVG Export Plug-In . SVG Version: 6.00 Build 0)  -->
<svg version="1.1" baseProfile="basic" id="Ebene_1"
	 xmlns="http://www.w3.org/2000/svg" xmlns:xlink="http://www.w3.org/1999/xlink" x="0px" y="0px" viewBox="0 0 366 85.8"
	 xml:space="preserve">
<g id="_x32_bLmom_1_">
</g>
<g id="g4997" transform="translate(-1.941896,-0.64729866)">
	<path id="path4873" fill="#FF1710" d="M190.6,10.8c-10.5,0-18.9,8.5-18.9,18.9c0,0,0,0,0,0c0,10.5,8.5,18.9,18.9,18.9c0,0,0,0,0,0
		c10.5,0,18.9-8.5,18.9-18.9C209.6,19.2,201.1,10.8,190.6,10.8C190.6,10.8,190.6,10.8,190.6,10.8z M190.6,18.2
		c6.3,0,11.5,5.1,11.5,11.5c0,0,0,0,0,0c0,6.3-5.1,11.5-11.5,11.5c0,0,0,0,0,0c-6.3,0-11.5-5.1-11.5-11.5c0,0,0,0,0,0
		C179.2,23.3,184.3,18.2,190.6,18.2C190.6,18.2,190.6,18.2,190.6,18.2z"/>
	<path id="path4534" fill="#FF1710" d="M155.8,11.2c-10.2,0-18.5,8.3-18.5,18.5c0,10.2,8.3,18.5,18.5,18.5c0,0,0,0,0,0
		c7.1,0,13.6-4.1,16.6-10.4h-8.3c-2.2,2.2-5.2,3.5-8.3,3.5c-6.4,0-11.6-5.2-11.6-11.6c0-6.4,5.2-11.6,11.6-11.6
		c3.2,0,6.3,1.4,8.5,3.8h8.2C169.5,15.4,163,11.2,155.8,11.2L155.8,11.2z"/>
	<path id="path211" fill="#FF1710" d="M76.8,10.5L66.2,34.1L55.1,10.5l-8.4,0V29v18.5h4l4.3,0c0-5.6-0.2-11.1,0-16.6l7.4,16.7h3.4
		h3.4L78,30.2l0,17.3h3.4h3.4V29V10.5L76.8,10.5z M2.9,10.5V29v18.5h4h4v-7.1v-7.1h6.1l6.4,0l0-4.1l0-3.8h-6.5H11l0-3.6l0-3.6
		l6.1-0.1l5.8,0v-3.9v-3.7H12.9L2.9,10.5z M23.3,33.2L23.3,33.2L23.3,33.2L23.3,33.2z M23.3,33.2L23.3,33.2
		c-3.1,4.8-6.6,9.5-9.7,14.3c0,0,1.7,0,4.3,0h3.9l2.1-2.9l2.1-2.9l6.2,0l6.2,0v2.9v2.9h3.4h3.4V29V10.5l-2.5,0
		c-1.4,0-3.6,0.2-3.6,0.2L25.5,30L23.3,33.2z M86.5,10.5V29v18.5h3.7h3.7V29V10.5h-3.7H86.5z M95.5,10.5V29v18.5h8.2h8.2v-7.7
		l-8.7,0L103,25.2l-0.1-14.7h-3.7L95.5,10.5z M103.2,10.5l11.6,21.9l0.3,15.1l7.8,0l0.1-15.1l11.7-21.9l-8.7-0.1l-7.3,13.7
		l-7.2-13.6L103.2,10.5z M350.1,10.8l-9.1,0.1v18.6l0,18.6h3.7h3.7l0-17.5L359.6,48l7.8-0.1c0,0-4.7-8.8-6.7-12.8
		c1.7-0.9,2.8-1.5,4.2-2.8c2.3-2.6,3-5.7,3-8.5c0-2.5-1.5-6.6-3.4-8.7C361.3,11.9,360.1,10.8,350.1,10.8L350.1,10.8z M248.3,11
		l-8.5,0L229.5,36l-10.5-25h-8.7l0.1,36.4h7.8v-17l7.7,17l6.8,0.1l8.4-17.7l0,17.9h7.2L248.3,11z M250,11v18.3l-0.1,18.6l7.3,0
		l0.1-6.9l0.1-6.2h2.8c12.2,0,18.1-12.8,9.6-20.8c-2.8-2.6-4.5-3-12.8-3L250,11z M274.8,11v13.2c0,12.7,0,13.3,1.2,16
		c1.4,3.2,4.8,6.4,7.7,7.2c5.3,1.5,11.1-1.1,13.6-6c1.3-2.6,1.3-2.8,1.3-16.5V11h-3.7h-3.7v13.5c-0.4,7,0.9,10.4-0.7,14.1
		c-1.1,2.4-6.1,2.3-7.3-0.6c-0.6-1.5-0.9-3.2-0.9-14.3V11h-3.7L274.8,11z M300.2,11l0.1,7.6l5.5,0l0.2,29.2h7l0-29.2l6.2,0l0.1-7.6
		L300.2,11z M320.3,11v18.2l0.1,18.7c3.7,0.1,9.5,0.1,9.8,0.2h9.2v-3.7v-3.7h-5.6h-5.6v-3.4v-3.4h5.6h5.6v-4v-4h-5.6h-5.6v-3.7v-3.7
		h5.6h5.6v-3.7V11h-9.5H320.3z M257.4,18.9l3.3,0c3,0,4.4,0.5,5.1,1.9c0.6,1.3,0.5,2.9-0.7,4.6c-1.1,1.2-1.7,1.4-4.5,1.4h-3.2v-4
		V18.9z M351.7,19.5c1.7,0,3.6,0.1,4.3,0.2c1.5,0.3,3.5,1.7,3.6,4.2c0,2-0.5,3.3-3.8,3.9c-3,0.1-7.3,0.1-7.3,0.1l0-8.4
		C348.5,19.5,350,19.5,351.7,19.5L351.7,19.5z M38.3,25.7v9.1l-6.8,0L38.3,25.7z M203.8,40c0,0-0.1,0.1-0.1,0.1
		C203.7,40.2,203.8,40,203.8,40L203.8,40z M181.3,40.2c0,0.1,0.1,0.1,0.1,0.2c0,0,0,0,0,0C181.5,40.4,181.4,40.3,181.3,40.2
		C181.4,40.3,181.4,40.2,181.3,40.2L181.3,40.2z M181.5,40.2c0,0.1,0.1,0.1,0.1,0.2c0,0,0.1,0.1,0.1,0.1
		C181.7,40.5,181.6,40.4,181.5,40.2L181.5,40.2z M183.3,41.4C183.4,41.5,183.4,41.5,183.3,41.4c0.1,0.1,0.1,0.1,0.1,0.1
		C183.5,41.5,183.3,41.4,183.3,41.4L183.3,41.4z M182.8,43C182.8,43,182.8,43,182.8,43C182.8,43,182.8,43,182.8,43
		C182.8,43,182.8,43,182.8,43C182.8,43,182.8,43,182.8,43z M187.6,43.4C187.6,43.4,187.5,43.4,187.6,43.4
		C187.6,43.5,187.6,43.5,187.6,43.4c0.1,0,0.4,0,0.3,0C187.8,43.5,187.7,43.5,187.6,43.4C187.6,43.4,187.6,43.4,187.6,43.4
		L187.6,43.4z M185.7,45.3C185.7,45.3,185.7,45.3,185.7,45.3c0.2,0.2,0.4,0.5,0.3,0.3C185.9,45.5,185.8,45.4,185.7,45.3L185.7,45.3z
		 M2.9,52.8v2.1V57h177.3h177.3l2.6-2c1.4-1.1,2.6-2,2.6-2.1c0-0.1-81-0.2-179.9-0.2L2.9,52.8z M46.2,62l0,4.1l21.5,2.5l-0.1-4.2
		L46.2,62z M3.3,62.3v4.4h18.9l0,2.1c-0.1,5.1-2.7,6.6-9.3,6.4l-7.5,0.1l-0.1,3.9l6.6,0c3.8,0,5.8,0.1,8.1-0.8
		c2.1-0.8,3-2.1,4.3-4.3c1.1-2.6,1.2-3.8,1.2-7.5l0-4.4L3.3,62.3z M171.6,62.3l-2.6,0v6.4c0,6.3,0.3,7.8,2.1,9.6
		c0.7,0.8,2.1,0.9,10.2,0.9l9.4,0v-1.9v-1.9h-8.5c-7.8,0-8.5-0.1-9.6-1.1c-0.6-0.6-0.8-2.5-0.7-3l18.7,0v-1.7c0-0.9-0.2-1.6-0.5-1.6
		c-0.3,0-0.2-0.7,0.1-1.6c0.4-1.5,0.4-1.9-0.7-3.2c-1.1-0.9-2.1-0.7-3.1-0.5c-1.7,0.6-2.1,2.5-1.3,3.9c0.6,1,0.9,1.2-0.1,1.2
		c-0.4,0-1-0.3-1.1-0.7c-0.2-0.6-1.5-0.8-6.3-0.8h-6L171.6,62.3z M69.5,62.3v5.3v5.3h1.6h1.6v-5.3v-5.3h-1.6L69.5,62.3z M143.6,62.3
		l-21.8,0.2v4.2l18.4,0l0.1,8.5l-18.3,0.1l0,3.9h10.8h10.8v-8.5L143.6,62.3z M167.5,62.3l-3.4,0.1c0,0.8,0,1.3,0,3
		c0,3.7-0.1,6.8-1.4,8c-1.6,1.6-4.2,2.2-10.7,2.2h-6.3v1.9l0,1.9h7.7c6.4,0,6.9,0,9.1-0.9c3.7-2.4,4.8-4.3,5-10.6L167.5,62.3z
		 M90.6,62.4l-2.6,0c0,0.6,0,2.9-0.1,5.5c-0.2,3.3-0.6,3.7-1,4.4c-1,1.9-3.7,2.7-9.3,2.7h-5v2.1v2.1h5.9c5.8,0,6.5-0.4,8.7-1.9
		c3.2-2.5,3.4-4.1,3.4-10C90.7,63.9,90.6,62.4,90.6,62.4z M233.6,62.4l-0.1,2c-0.4,1.8-1.3,3.4-3.2,3.4l0,4.5c2.2,0.1,3.8-1.4,5-3.5
		l0.9-1.7L249,67c0,0,0.1,1.3-0.1,1.7c-0.5,0.6-1.4,0.5-6.1,0.5h-6v2.1v2.1h5h5.2c0,0.5-0.3,1.3-1.4,1.7c-1.5,0.5-4.2,0.4-7.2,0.4
		h-5.8v1.9v1.9l7.3,0l7.3,0l2.4-2.3l2.4-2.3l0.2-6.1l0.1-5.9L233.6,62.4z M145.3,62.5l0,4.2c4.2,0,8.7,0,12.9,0l0-4.1L145.3,62.5z
		 M187.8,64c0.9-0.1,1.5,0.4,1.6,1.5c0.1,1.8-2.9,2.3-3.1,0.4C186.1,64.4,186.6,64.1,187.8,64z M26.6,66v4.2l14.5,0
		c0,0.6,0.4,1.7-2.5,1.6l-4.6,0l-0.1,3.4l-7.1,0.1v3.9h3.7c3.4,0,3.8-0.1,5-1.1c0.7-0.8,1.3-2.3,1.3-2.5c0-0.2,1.8,0,3.4-0.1
		c3.6-0.2,4.5-1.5,4.5-6.1V66L26.6,66z M193.8,66.7l0,4.1h8.6c0.9,0,1.2,1,1.2,2.4l0,2.1l-11.4,0.1v3.9h8.7h8.7l-0.1-4
		c-1.4,0-2.1,0-3.4,0l-0.1-8.6L193.8,66.7z M46.2,67.9l0.1,3.9L67.8,74l0-3.9L46.2,67.9z M92.8,68.7v2.1v2.1h10.3h10.3v-2.1v-2.1
		h-10.3L92.8,68.7z M208.2,69.2l0,4.1l21.3-0.1l0-4L208.2,69.2z M46.2,73.6l0.1,3.9l21.5,2l0-3.8L46.2,73.6z"/>
</g>
</svg>
